<?xml version="1.0" standalone="no"?>
<!DOCTYPE svg PUBLIC "-//W3C//DTD SVG 20010904//EN"
 "http://www.w3.org/TR/2001/REC-SVG-20010904/DTD/svg10.dtd">
<svg version="1.0" xmlns="http://www.w3.org/2000/svg"
 width="3000.000000pt" height="3000.000000pt" viewBox="0 0 3000.000000 3000.000000"
 preserveAspectRatio="xMidYMid meet">

<g transform="translate(0.000000,3000.000000) scale(0.100000,-0.100000)"
fill="#000000" stroke="none">
<path d="M14345 28559 c-1491 -70 -2964 -386 -4350 -934 -2312 -913 -4352
-2472 -5852 -4470 -802 -1069 -1443 -2253 -1901 -3510 -409 -1124 -674 -2352
-766 -3545 -55 -708 -55 -1473 0 -2155 158 -1969 731 -3852 1692 -5560 806
-1433 1876 -2716 3153 -3782 602 -502 1344 -1013 2024 -1395 2616 -1467 5617
-2023 8600 -1592 2307 333 4503 1270 6354 2712 460 358 805 665 1257 1116 426
427 709 742 1045 1166 1486 1873 2448 4100 2788 6460 158 1096 182 2231 70
3334 -249 2458 -1159 4781 -2647 6761 -573 763 -1286 1522 -2012 2145 -1246
1068 -2673 1902 -4200 2455 -1289 467 -2621 730 -4015 795 -251 11 -987 11
-1240 -1z m1085 -653 c190 -7 242 -10 465 -27 72 -5 162 -12 200 -14 39 -3 86
-7 105 -10 19 -2 60 -7 90 -10 553 -53 1244 -176 1830 -327 763 -195 1408
-424 2205 -783 321 -144 939 -473 1255 -668 475 -294 850 -552 1255 -866 137
-106 400 -321 485 -397 19 -17 78 -69 130 -115 93 -82 118 -104 290 -263 227
-210 658 -658 890 -926 36 -41 67 -77 70 -80 3 -3 27 -32 55 -65 27 -33 56
-67 64 -75 37 -38 301 -374 432 -550 325 -436 600 -856 882 -1350 138 -241
374 -704 501 -982 555 -1216 903 -2459 1066 -3803 24 -204 27 -230 35 -320 4
-38 8 -88 10 -110 2 -22 6 -80 10 -130 3 -49 8 -110 10 -135 27 -326 27 -1455
1 -1665 -2 -16 -7 -75 -11 -130 -4 -55 -8 -113 -10 -130 -2 -16 -6 -61 -9
-100 -11 -123 -32 -303 -65 -555 -86 -647 -244 -1368 -437 -1995 -31 -99 -60
-195 -66 -214 -5 -18 -47 -140 -93 -270 -195 -553 -398 -1032 -656 -1543 -108
-212 -155 -302 -284 -533 -173 -310 -488 -806 -708 -1115 -184 -257 -510 -677
-672 -865 -55 -63 -76 -88 -107 -125 -18 -21 -95 -107 -201 -225 -332 -368
-716 -741 -1137 -1105 -41 -36 -84 -73 -95 -83 -58 -53 -426 -344 -605 -478
-1616 -1211 -3557 -2041 -5525 -2364 -260 -42 -434 -68 -540 -80 -27 -3 -61
-8 -75 -10 -14 -2 -56 -7 -95 -10 -38 -4 -77 -8 -85 -10 -8 -2 -53 -7 -100
-10 -47 -4 -98 -9 -115 -11 -16 -2 -70 -6 -120 -9 -49 -3 -110 -8 -135 -10
-329 -27 -1600 -27 -1735 0 -11 2 -69 7 -130 10 -60 3 -123 7 -140 9 -16 2
-66 7 -110 10 -44 4 -91 9 -105 11 -14 2 -54 7 -90 10 -36 3 -76 8 -90 10 -14
2 -50 7 -80 10 -92 11 -313 44 -540 81 -874 144 -1765 395 -2610 734 -135 54
-272 110 -305 125 -33 15 -107 47 -165 72 -147 63 -613 292 -810 398 -730 391
-1398 835 -2040 1355 -136 110 -431 359 -450 380 -3 3 -50 45 -105 95 -266
238 -709 686 -970 980 -76 85 -352 414 -461 548 -385 474 -903 1254 -1204
1812 -24 44 -52 96 -63 115 -38 67 -273 536 -316 630 -354 774 -621 1521 -806
2260 -53 211 -148 641 -170 765 -84 476 -130 805 -160 1120 -3 33 -7 76 -9 95
-2 19 -7 76 -11 125 -3 50 -10 140 -15 200 -30 357 -33 1354 -5 1625 2 19 6
80 10 135 6 99 12 178 20 265 3 25 9 97 15 160 6 63 12 131 15 150 2 19 14
107 25 195 246 1913 946 3781 2026 5405 505 760 999 1365 1638 2006 735 737
1604 1413 2506 1951 462 275 923 513 1415 730 158 70 589 245 645 263 14 5 63
23 110 40 523 196 1144 372 1820 516 307 65 971 167 1230 189 41 4 86 8 100
11 14 2 70 6 125 10 55 3 106 7 112 9 7 3 68 7 135 11 68 3 137 7 153 9 17 2
143 7 280 11 138 4 251 7 252 8 5 3 514 -3 673 -8z"/>
<path d="M14529 27336 c-2 -2 -76 -7 -164 -10 -88 -4 -187 -9 -220 -11 -142
-9 -233 -16 -280 -20 -300 -28 -285 -27 -465 -50 -1371 -174 -2651 -557 -3865
-1155 -307 -151 -442 -223 -720 -382 -268 -154 -717 -440 -940 -600 -211 -152
-678 -507 -705 -538 -3 -3 -30 -25 -60 -50 -47 -38 -191 -162 -309 -265 -354
-311 -824 -788 -1161 -1180 -52 -60 -99 -115 -105 -121 -61 -67 -333 -415
-475 -608 -63 -87 -129 -176 -146 -199 -59 -80 -331 -493 -426 -647 -332 -538
-639 -1142 -886 -1740 -462 -1118 -754 -2301 -868 -3505 -2 -27 -6 -68 -9 -90
-2 -22 -7 -78 -10 -125 -4 -47 -8 -110 -10 -140 -26 -373 -26 -1279 0 -1590 1
-19 6 -87 9 -150 4 -63 9 -122 11 -130 2 -8 6 -56 10 -105 3 -50 8 -104 10
-120 2 -17 6 -57 9 -90 26 -250 114 -809 172 -1090 57 -276 143 -624 216 -875
28 -96 54 -188 58 -205 17 -67 156 -483 227 -675 235 -642 548 -1312 881
-1885 233 -401 464 -756 736 -1130 177 -244 588 -754 706 -876 8 -9 44 -49 80
-90 207 -234 647 -674 901 -901 14 -13 61 -54 104 -93 43 -38 90 -79 104 -90
27 -21 82 -68 141 -123 54 -49 407 -325 575 -448 201 -147 327 -235 504 -354
1141 -760 2418 -1326 3756 -1665 509 -128 1142 -245 1580 -290 33 -3 71 -8 85
-10 14 -2 59 -7 100 -10 41 -3 86 -8 100 -10 14 -2 63 -7 110 -10 47 -3 101
-8 120 -10 37 -5 153 -11 420 -25 167 -8 1072 -6 1087 3 4 2 76 8 158 11 83 4
157 9 165 11 8 2 58 6 110 9 52 4 113 9 135 11 22 3 60 7 85 9 25 3 72 8 105
11 1380 144 2827 569 4095 1202 696 347 1275 705 1915 1184 231 173 621 490
731 594 6 5 46 42 89 80 153 137 253 232 480 460 266 266 326 329 495 520 67
77 137 156 154 175 17 19 48 56 69 82 21 26 44 53 51 60 35 36 313 393 444
571 831 1131 1463 2398 1866 3742 131 438 248 936 335 1435 25 142 57 361 77
520 3 25 7 56 9 70 2 14 7 57 10 95 4 39 8 81 10 95 2 14 7 54 10 90 3 36 8
85 10 110 2 25 7 79 10 120 3 41 7 100 10 130 19 241 27 646 21 1045 -4 248
-8 464 -10 480 -2 17 -7 82 -10 145 -4 63 -9 133 -11 155 -2 22 -6 72 -10 110
-70 772 -210 1527 -422 2275 -147 523 -413 1243 -626 1700 -21 47 -52 112 -67
146 -165 357 -443 868 -678 1244 -112 181 -330 510 -383 580 -14 19 -79 108
-144 198 -95 133 -203 275 -298 392 -343 425 -539 643 -926 1030 -474 474
-826 780 -1341 1165 -446 334 -883 616 -1415 913 -169 94 -747 383 -880 440
-38 16 -128 55 -200 86 -1066 465 -2274 781 -3500 916 -148 16 -172 18 -265
25 -47 3 -105 8 -128 10 -24 3 -99 7 -165 11 -67 3 -140 7 -162 10 -50 6 -990
15 -996 10z m644 -583 c16 -124 68 -695 65 -698 -2 -3 -168 -21 -369 -41 -200
-20 -365 -37 -366 -38 -1 0 38 -404 87 -896 48 -492 100 -1020 115 -1173 15
-153 25 -280 23 -283 -7 -6 -1028 -108 -1033 -102 -2 1 -55 529 -118 1172 -64
642 -118 1171 -121 1174 -4 3 -169 -11 -369 -30 -199 -20 -364 -34 -365 -33
-10 10 -76 748 -67 751 5 2 267 28 580 59 314 31 854 84 1200 119 347 35 653
64 681 65 l51 1 6 -47z m3392 -553 c1035 -349 1430 -486 1428 -495 -3 -14
-236 -699 -239 -704 -2 -2 -161 50 -353 115 -192 65 -351 117 -354 114 -2 -3
-157 -459 -345 -1015 -423 -1249 -411 -1215 -427 -1215 -7 0 -60 16 -117 36
-56 20 -269 92 -473 161 -203 68 -374 128 -378 133 -7 6 703 2125 743 2218 8
19 6 24 -13 31 -12 4 -172 59 -355 121 -278 94 -332 116 -327 129 4 9 58 166
120 348 63 183 116 337 120 342 3 6 124 -31 278 -83 149 -52 461 -158 692
-236z m-7042 -185 c209 -47 408 -147 562 -283 21 -19 34 -37 29 -42 -5 -4
-172 -134 -372 -289 l-364 -282 -48 36 c-184 135 -415 132 -685 -8 -185 -96
-241 -218 -150 -325 57 -68 148 -67 497 7 609 130 709 145 933 145 167 0 186
-2 268 -27 319 -98 525 -309 603 -616 59 -230 18 -466 -118 -695 -222 -372
-654 -677 -1228 -866 -286 -95 -486 -127 -720 -116 -263 12 -480 87 -686 239
-73 54 -204 178 -204 193 0 6 196 133 435 282 l435 271 42 -40 c55 -51 166
-106 243 -120 205 -38 571 80 726 234 80 79 86 154 17 232 -68 78 -190 78
-528 -1 -413 -95 -582 -119 -860 -119 -251 0 -295 7 -427 70 -224 105 -367
269 -443 503 -75 233 -55 456 65 697 91 184 217 329 406 470 308 230 782 423
1149 469 73 9 356 -3 423 -19z m9732 -1066 c193 -118 349 -220 348 -225 -1 -8
-1619 -2643 -1628 -2653 -6 -5 -927 563 -931 575 -4 8 959 1584 1582 2591 l45
72 117 -72 c64 -39 275 -169 467 -288z m-12771 -683 c245 -47 479 -239 597
-491 101 -216 97 -398 -16 -698 -20 -55 -34 -101 -32 -104 5 -4 589 -232 1282
-499 61 -23 110 -44 110 -47 0 -4 -244 -235 -748 -710 l-136 -129 -602 256
-602 255 -124 -116 c-68 -64 -122 -120 -121 -124 2 -4 184 -199 406 -434 221
-235 402 -430 402 -434 0 -4 -178 -175 -396 -381 -287 -270 -400 -371 -409
-364 -18 12 -2130 2254 -2132 2262 -2 10 1446 1368 1527 1433 150 120 352 236
495 284 154 52 353 69 499 41z m14666 -719 c250 -297 456 -546 458 -552 1 -6
-191 -317 -429 -691 -516 -812 -488 -768 -485 -771 1 -2 164 67 362 153 197
86 404 175 459 199 55 24 246 107 425 184 178 78 327 141 330 141 7 0 923
-1086 928 -1099 2 -5 -527 -456 -1175 -1002 -648 -546 -1185 -998 -1193 -1005
-13 -11 -61 41 -340 372 -179 212 -326 389 -328 394 -1 4 368 319 820 700 453
381 834 704 848 717 21 20 9 17 -75 -20 -55 -25 -323 -141 -595 -260 -272
-118 -697 -304 -945 -412 -247 -109 -460 -199 -471 -202 -18 -4 -58 38 -243
257 -122 144 -221 265 -221 269 0 5 53 91 118 192 65 101 313 488 551 859 239
371 467 726 507 788 40 61 71 112 68 112 -2 0 -361 -300 -797 -668 -967 -815
-896 -756 -901 -751 -25 25 -526 625 -525 629 0 3 100 89 222 191 122 103 658
554 1190 1003 533 449 972 816 975 815 4 0 212 -244 462 -542z m-7730 -897
c1356 -71 2622 -476 3755 -1202 642 -412 1257 -958 1761 -1563 503 -605 926
-1322 1219 -2065 289 -731 457 -1483 516 -2300 15 -213 15 -799 0 -1005 -53
-714 -176 -1325 -392 -1963 -445 -1308 -1259 -2496 -2319 -3385 -1271 -1065
-2809 -1677 -4468 -1778 -249 -15 -897 -6 -1117 15 -890 87 -1656 286 -2435
631 -1420 629 -2641 1709 -3444 3047 -551 918 -899 1924 -1030 2978 -42 338
-47 418 -53 837 -7 512 10 802 73 1232 312 2143 1520 4044 3343 5261 1338 893
2979 1344 4591 1260z m-9590 -1452 c261 -155 534 -316 605 -358 467 -275 1562
-924 1571 -931 8 -6 -25 -70 -106 -207 -65 -108 -189 -318 -277 -467 -104
-176 -165 -270 -175 -269 -9 1 -240 134 -514 296 -275 162 -870 514 -1324 782
-454 269 -829 492 -834 496 -5 5 116 219 270 480 209 353 282 469 293 465 8
-3 229 -133 491 -287z m19975 -1533 c37 -115 125 -388 195 -605 437 -1348 562
-1741 558 -1746 -10 -9 -659 -215 -669 -212 -10 3 -93 257 -406 1226 -53 166
-102 302 -108 302 -17 0 -389 -121 -398 -130 -8 -7 89 -318 307 -985 47 -143
84 -260 83 -261 -3 -3 -647 -211 -666 -216 -11 -2 -65 153 -216 617 -180 554
-203 620 -221 617 -17 -3 -455 -143 -462 -148 -2 -1 69 -224 157 -496 87 -271
200 -618 249 -770 l90 -278 -252 -80 c-138 -45 -297 -96 -354 -115 -73 -24
-104 -30 -107 -22 -2 7 -53 165 -114 352 -60 187 -181 563 -269 835 -88 272
-224 692 -302 933 -78 242 -140 440 -138 442 3 3 239 79 1603 520 369 119 825
267 1015 329 190 62 348 110 351 107 4 -3 37 -100 74 -216z m-21122 23 c347
-103 348 -103 342 -128 -6 -24 -72 -249 -314 -1065 -60 -203 -108 -371 -107
-372 11 -11 468 -138 472 -132 5 9 76 248 246 826 46 156 87 283 93 283 18 0
660 -192 669 -200 4 -5 -64 -253 -154 -557 -89 -301 -163 -552 -164 -557 -1
-7 246 -82 952 -291 89 -26 162 -52 162 -57 0 -7 -158 -545 -265 -903 -18 -60
-37 -111 -42 -112 -8 -3 -641 183 -2630 773 -194 57 -355 104 -359 104 -3 0
-3 8 0 17 4 9 53 174 111 367 219 742 558 1886 587 1986 33 113 36 120 46 120
4 1 164 -46 355 -102z m650 -6014 c90 -20 234 -89 309 -148 70 -56 146 -146
192 -228 91 -164 116 -390 62 -573 -39 -131 -95 -224 -198 -327 -73 -73 -101
-94 -190 -137 -122 -61 -206 -81 -344 -81 -360 0 -665 248 -738 602 -82 396
161 784 555 888 94 24 252 26 352 4z m19545 -40 c170 -38 338 -149 438 -290
155 -218 188 -499 86 -742 -98 -235 -316 -408 -568 -452 -87 -16 -245 -8 -329
15 -327 89 -555 389 -555 729 0 125 18 212 64 311 156 338 503 510 864 429z
m-16629 -4228 c477 -531 593 -671 651 -786 77 -152 100 -327 62 -477 -51 -201
-173 -346 -349 -413 -73 -28 -226 -38 -304 -20 -60 14 -212 81 -223 99 -4 6
-11 11 -17 11 -5 0 4 -24 20 -52 40 -71 79 -191 91 -281 23 -164 -30 -308
-159 -437 -136 -134 -280 -198 -474 -207 -98 -5 -114 -4 -193 22 -116 38 -262
136 -405 272 -104 100 -1095 1191 -1087 1198 1 1 419 377 928 834 726 652 927
828 936 818 7 -6 242 -268 523 -581z m14031 79 c550 -209 1153 -437 1625 -615
193 -73 354 -136 359 -140 6 -6 -452 -555 -555 -664 -17 -19 -23 -17 -253 77
-129 54 -238 97 -243 96 -4 0 -119 -130 -255 -290 l-247 -289 65 -110 c35 -61
93 -160 129 -222 36 -61 64 -117 61 -124 -7 -17 -448 -534 -455 -534 -3 0 -45
69 -92 153 -77 135 -248 433 -1013 1767 -109 190 -203 350 -208 357 -13 16
591 724 612 716 8 -2 220 -83 470 -178z m-1576 -1458 c80 -126 146 -232 146
-237 0 -4 -241 -162 -535 -350 -295 -189 -537 -346 -540 -350 -7 -11 174 -285
188 -284 11 1 823 514 863 545 7 6 60 -68 158 -221 81 -127 149 -236 152 -244
3 -9 -137 -104 -431 -292 -317 -203 -434 -283 -430 -294 4 -8 51 -85 107 -172
62 -97 105 -155 112 -151 6 4 249 159 539 345 291 186 532 338 537 338 4 0 79
-111 166 -247 141 -220 156 -248 140 -257 -9 -6 -88 -56 -174 -112 -86 -55
-265 -169 -397 -254 -132 -84 -325 -208 -430 -275 -621 -398 -775 -496 -788
-501 -10 -4 -87 108 -270 393 -278 434 -1069 1672 -1079 1688 -4 6 110 85 260
182 270 173 701 448 1177 753 143 91 285 182 315 202 30 19 58 33 62 29 3 -3
72 -109 152 -234z m-10603 -347 c134 -27 234 -62 379 -131 142 -68 310 -177
420 -272 392 -338 539 -856 374 -1319 -38 -107 -136 -290 -209 -393 -379 -531
-1017 -680 -1630 -381 -459 224 -751 576 -830 1001 -14 70 -16 124 -12 245 7
203 38 322 133 516 189 387 475 628 861 728 151 39 338 41 514 6z m8572 -692
c141 -410 165 -489 154 -493 -7 -3 -131 -45 -276 -94 -144 -49 -265 -92 -268
-95 -3 -3 24 -92 60 -198 36 -106 171 -508 301 -892 130 -385 233 -703 229
-707 -5 -4 -174 -64 -378 -132 -203 -69 -377 -128 -386 -132 -14 -5 -21 5 -34
47 -31 93 -588 1743 -590 1746 -1 1 -127 -40 -281 -92 -153 -52 -279 -94 -281
-93 -6 6 -192 561 -189 564 2 2 81 30 177 62 96 33 509 172 919 311 860 291
792 268 807 269 6 1 22 -32 36 -71z m-5863 -448 c761 -157 878 -187 1019 -260
229 -119 365 -334 365 -575 -1 -289 -191 -499 -497 -548 l-82 -13 37 -17 c21
-9 69 -36 108 -61 193 -125 280 -270 280 -465 0 -209 -92 -403 -258 -543 -67
-57 -132 -91 -222 -115 -86 -24 -361 -24 -505 0 -83 13 -1517 306 -1521 311
-1 0 47 237 107 526 60 289 172 831 249 1205 78 374 143 688 146 698 4 11 12
16 22 13 9 -2 348 -73 752 -156z m3415 -282 c47 -100 568 -1218 935 -2006 72
-156 130 -286 128 -287 -8 -8 -883 -84 -889 -77 -3 4 -38 84 -79 177 -40 94
-85 197 -100 230 l-27 60 -379 -34 c-208 -19 -381 -38 -384 -42 -3 -4 -31
-114 -64 -246 -32 -131 -62 -242 -66 -246 -8 -9 -641 -69 -681 -65 l-26 3 189
740 c408 1601 461 1810 465 1815 3 3 364 39 911 89 8 0 36 -48 67 -111z"/>
<path d="M7830 23287 c-102 -29 -178 -89 -505 -399 l-109 -104 204 -217 c113
-119 208 -217 211 -217 4 0 98 87 210 193 268 254 335 353 332 493 -4 162
-186 296 -343 251z"/>
<path d="M14800 21813 c-2188 -61 -4219 -1182 -5446 -3008 -302 -449 -566
-969 -749 -1477 -392 -1083 -501 -2260 -314 -3408 213 -1314 809 -2536 1715
-3514 1621 -1752 4003 -2520 6354 -2050 489 98 989 261 1466 478 1300 593
2400 1607 3105 2862 901 1607 1109 3523 573 5298 -685 2269 -2545 4043 -4842
4615 -365 91 -669 143 -1062 181 -121 12 -556 30 -645 28 -33 -1 -103 -3 -155
-5z m460 -488 c206 -5 229 -7 395 -25 258 -29 307 -36 525 -76 138 -26 537
-121 555 -132 6 -4 -15 -9 -45 -12 -38 -4 -60 -1 -72 8 -14 12 -35 12 -128 2
-89 -10 -116 -10 -135 0 -40 21 -228 -2 -295 -37 -50 -26 -63 -28 -160 -27
-58 0 -143 7 -190 14 -125 20 -292 17 -360 -8 -30 -11 -93 -25 -140 -32 -94
-13 -98 -14 -260 -63 -152 -47 -264 -70 -292 -62 -13 4 -40 18 -61 32 -34 23
-39 24 -55 11 -10 -9 -46 -18 -88 -21 -66 -5 -75 -3 -140 28 -38 19 -78 35
-88 35 -11 0 -30 10 -43 22 -16 15 -42 24 -86 29 -34 4 -98 13 -142 19 -47 7
-115 10 -167 6 -61 -5 -108 -2 -161 9 -41 8 -115 16 -164 17 -79 1 -93 -2
-120 -22 -17 -12 -33 -31 -36 -41 -3 -11 -18 -20 -43 -25 -22 -3 -44 -10 -50
-15 -6 -5 -69 -11 -140 -15 -78 -4 -137 -12 -150 -19 -11 -7 -59 -17 -105 -20
-50 -5 -91 -13 -101 -22 -10 -9 -31 -13 -55 -11 -35 3 -27 7 92 52 574 215
1110 335 1750 392 85 8 478 21 520 17 17 -1 122 -5 235 -8z m835 -425 c-3 -6
-23 -10 -43 -9 -26 0 -31 3 -19 8 29 11 69 12 62 1z m90 1 c10 -17 -33 -33
-55 -21 -27 14 -16 30 20 30 16 0 31 -4 35 -9z m-3392 -158 c-7 -2 -21 -2 -30
0 -10 3 -4 5 12 5 17 0 24 -2 18 -5z m-53 -12 c0 -5 -6 -11 -12 -14 -19 -6
-49 4 -42 14 7 12 54 12 54 0z m3973 -192 c20 -5 37 -14 37 -18 0 -5 -16 -16
-36 -26 -30 -14 -35 -21 -30 -41 5 -19 1 -26 -24 -39 -33 -17 -163 -52 -222
-59 -20 -3 -60 -12 -90 -20 -29 -9 -71 -16 -93 -16 -58 -1 -145 11 -145 19 0
14 89 81 108 81 10 0 27 9 37 20 9 10 34 25 54 31 20 6 41 16 48 21 30 24 90
48 108 44 11 -2 54 0 95 4 112 11 112 11 153 -1z m-493 -38 c0 -13 -26 -21
-63 -21 l-32 1 25 14 c28 16 70 20 70 6z m-3455 -71 c16 -7 12 -9 -18 -9 -23
-1 -36 3 -32 9 7 12 23 12 50 0z m3282 4 c-3 -3 -12 -4 -19 -1 -8 3 -5 6 6 6
11 1 17 -2 13 -5z m-3427 -31 c30 -8 59 -19 65 -24 5 -5 19 -9 31 -9 24 0 94
-37 94 -49 0 -4 -26 -15 -59 -24 -50 -14 -78 -15 -207 -6 -157 11 -179 17
-179 45 0 11 -10 20 -24 24 -62 15 -7 48 84 51 22 1 54 5 70 9 31 8 34 8 125
-17z m5959 -180 c103 -68 335 -245 476 -363 597 -502 1051 -1050 1462 -1765
168 -292 380 -777 492 -1125 115 -360 220 -831 257 -1155 3 -33 8 -67 9 -75 2
-8 6 -51 10 -95 4 -44 9 -91 11 -105 17 -104 24 -618 12 -870 -27 -524 -147
-1155 -315 -1650 -330 -974 -874 -1839 -1594 -2534 -198 -191 -495 -446 -520
-446 -10 0 -124 102 -154 138 -11 13 -50 56 -87 96 -38 40 -68 77 -68 83 0 6
-22 31 -50 57 -27 26 -50 51 -50 57 0 10 -47 59 -135 142 -22 20 -58 59 -80
85 -22 27 -55 60 -74 75 -32 25 -178 157 -225 203 -12 11 -39 33 -61 49 -22
16 -44 35 -50 41 -16 20 -135 98 -189 125 -28 13 -85 58 -128 101 -91 89 -97
112 -48 180 17 22 30 45 30 49 0 5 20 43 45 85 51 86 57 117 23 112 -18 -2
-24 -12 -31 -46 -6 -31 -15 -46 -33 -54 -13 -6 -24 -17 -24 -24 0 -7 -9 -18
-20 -24 -11 -6 -26 -23 -34 -39 -11 -21 -27 -31 -62 -40 -30 -8 -60 -25 -82
-47 -18 -18 -38 -34 -43 -34 -5 0 -9 -4 -9 -9 0 -5 -11 -12 -25 -15 -21 -5
-25 -12 -25 -41 0 -39 -12 -45 -32 -16 -12 17 -19 19 -58 10 -25 -6 -53 -17
-62 -26 -10 -9 -18 -12 -18 -7 0 5 -7 0 -15 -10 -8 -11 -15 -16 -15 -12 0 4
-13 -2 -29 -14 -17 -11 -46 -21 -66 -22 -48 -2 -115 -63 -115 -105 0 -15 -8
-41 -18 -58 -10 -16 -29 -58 -41 -93 -13 -34 -32 -67 -41 -72 -10 -5 -27 -29
-38 -54 -12 -25 -47 -67 -84 -100 -35 -30 -81 -81 -103 -112 -35 -51 -91 -111
-177 -192 -16 -14 -28 -29 -28 -33 0 -4 -16 -13 -35 -20 -19 -7 -35 -19 -35
-26 0 -8 -15 -23 -34 -34 -19 -11 -37 -27 -40 -35 -3 -8 -26 -24 -51 -35 -31
-14 -45 -26 -45 -39 0 -11 -6 -21 -12 -22 -7 0 -24 -2 -38 -4 -14 -1 -57 -14
-96 -28 -57 -21 -93 -26 -195 -29 -76 -2 -142 1 -170 8 -59 16 -169 60 -213
86 -48 28 -122 18 -138 -17 -15 -32 -45 -39 -148 -37 -62 1 -107 8 -165 28
-135 44 -266 129 -279 179 -3 14 -15 30 -26 36 -25 13 -26 54 -4 110 13 32 27
46 63 64 92 46 165 61 491 101 107 14 278 65 372 111 86 44 194 123 227 168 8
10 25 28 38 39 14 13 23 32 23 49 0 34 10 55 56 115 19 25 34 51 34 59 0 8 8
31 19 52 14 27 16 43 9 61 -5 14 -6 37 -3 53 5 21 3 28 -8 28 -28 0 -48 -31
-45 -69 l3 -36 -90 -1 c-50 -1 -101 -6 -113 -13 -12 -6 -32 -9 -46 -5 -14 3
-37 -1 -57 -11 -22 -12 -64 -19 -128 -21 -53 -2 -105 -4 -116 -4 -11 -1 -31
-1 -45 -1 -14 1 -43 -1 -65 -4 -94 -11 -210 -13 -234 -3 -14 6 -55 14 -90 18
-102 12 -132 62 -58 98 22 11 34 10 74 -3 43 -15 52 -15 115 0 37 10 74 15 82
12 7 -3 40 3 72 14 32 11 64 17 72 14 7 -2 27 1 45 8 18 8 38 12 45 9 7 -2 43
8 79 23 52 21 95 29 193 36 69 5 172 16 229 25 57 9 125 14 150 10 64 -8 200
23 249 57 42 30 87 35 117 13 11 -7 65 -24 119 -36 94 -22 101 -22 129 -7 16
10 34 17 41 17 9 0 15 23 20 70 7 77 -3 110 -33 110 -9 0 -35 15 -57 33 -51
44 -126 87 -150 87 -10 0 -46 -17 -79 -37 -53 -33 -69 -38 -135 -41 -95 -5
-253 33 -460 111 -334 125 -468 151 -521 101 -25 -24 -32 -26 -86 -19 -188 22
-297 124 -157 148 134 24 156 30 184 54 21 17 36 45 51 95 16 51 35 86 70 129
56 67 75 74 223 88 111 11 180 42 229 103 38 47 31 68 -23 68 -39 0 -40 1 -40
34 0 31 -5 37 -57 67 -32 19 -71 38 -87 42 -16 5 -46 22 -67 39 l-38 31 -163
4 c-90 2 -176 3 -193 3 -16 1 -49 11 -72 23 -23 12 -72 38 -110 58 -37 20 -80
51 -96 68 -17 19 -37 31 -53 31 -14 0 -37 12 -51 26 -25 25 -25 29 -20 111 3
52 0 120 -9 171 -17 107 -22 123 -45 145 -11 10 -19 27 -19 37 0 18 -7 20 -64
20 -64 0 -64 0 -81 -36 -17 -35 -61 -83 -78 -84 -18 0 -58 -55 -69 -94 -6 -23
-18 -50 -25 -61 -7 -11 -13 -27 -13 -36 0 -9 -9 -24 -21 -35 -25 -23 -50 -75
-79 -164 -11 -36 -29 -81 -39 -100 -10 -19 -33 -80 -51 -135 -44 -137 -50
-158 -50 -181 0 -10 -9 -48 -20 -84 -12 -36 -25 -89 -30 -119 -12 -66 -51
-144 -96 -191 -19 -20 -34 -41 -34 -48 0 -16 -54 -42 -89 -42 -22 0 -42 12
-76 45 -25 26 -59 48 -76 52 -21 4 -38 18 -54 44 -15 22 -34 39 -47 41 -15 2
-24 11 -26 26 -2 15 -17 29 -48 43 -24 12 -44 27 -44 35 0 14 -45 59 -52 53
-3 -2 -21 11 -42 29 -20 17 -42 32 -49 32 -7 0 -30 20 -50 45 -21 25 -43 45
-50 45 -15 1 -93 73 -107 100 -6 11 -27 27 -47 35 -47 20 -73 43 -73 65 0 10
-11 25 -25 34 -14 9 -25 24 -25 34 0 25 -52 99 -94 134 -20 16 -36 37 -36 46
0 9 -16 35 -35 56 -19 22 -35 44 -35 49 0 4 -14 28 -30 52 -17 24 -33 58 -37
76 -4 21 -17 38 -39 51 -19 11 -34 24 -34 29 0 14 -98 109 -113 109 -14 0 -70
67 -130 155 -23 35 -26 45 -17 75 5 18 22 46 36 61 15 15 32 36 38 47 26 44
104 133 141 159 22 16 70 45 106 66 l66 36 114 -4 c479 -19 583 -15 739 28 30
8 78 18 106 22 28 3 64 14 80 22 40 22 104 32 274 42 133 8 150 11 207 40 l62
31 73 -36 c40 -20 80 -42 88 -50 23 -19 101 -44 140 -44 39 0 80 23 80 45 0 8
20 41 44 72 38 50 45 69 57 138 7 44 20 91 30 105 33 48 42 289 15 373 -8 23
-18 59 -22 80 -4 24 -15 44 -30 53 -13 9 -28 32 -35 52 -8 23 -35 58 -72 92
-33 30 -62 62 -66 71 -8 22 -109 109 -125 109 -8 0 -16 6 -19 14 -8 21 -205
111 -297 136 -25 7 -63 18 -85 26 -22 8 -67 19 -100 25 -33 6 -114 25 -180 44
-66 18 -136 36 -155 40 -19 3 -62 15 -95 25 -33 10 -94 25 -135 35 -41 9 -81
22 -88 28 -7 5 -48 18 -90 28 -123 27 -222 59 -286 91 -70 35 -183 73 -246 82
-25 4 -68 12 -96 17 l-52 10 -5 62 c-8 105 -37 328 -52 407 -17 87 -19 150 -5
150 6 0 10 7 10 16 0 13 7 15 31 10 38 -7 68 18 78 66 6 30 12 34 59 47 43 12
52 18 52 36 0 13 7 25 15 29 9 3 15 19 15 41 0 24 4 35 15 35 8 0 15 7 15 15
0 8 7 15 15 15 19 0 31 65 15 85 -7 8 -19 15 -26 15 -8 0 -14 7 -14 15 0 8 -4
15 -10 15 -5 0 -10 7 -10 15 0 8 -9 20 -20 27 -11 7 -20 21 -20 31 0 10 -4 15
-10 12 -5 -3 -10 3 -10 14 0 10 -5 21 -11 23 -5 2 -13 22 -16 46 -3 23 -10 42
-14 42 -5 0 -9 12 -9 28 0 17 -13 42 -35 66 -20 23 -37 55 -41 75 -3 20 -10
50 -15 67 -8 26 -5 39 15 75 47 84 59 114 63 169 5 48 11 61 46 97 22 23 54
47 71 54 17 7 38 18 46 24 8 7 31 15 50 19 19 3 51 18 70 31 50 34 121 47 190
33 95 -19 161 18 76 42 -25 7 -43 16 -40 21 2 4 16 4 30 -1 14 -6 43 -10 64
-10 31 0 38 3 34 15 -6 16 11 21 20 6 12 -18 69 -21 100 -4 28 15 95 24 171
22 17 0 42 0 58 0 55 2 83 1 152 -3 52 -4 76 -1 93 10 13 9 30 13 38 10 8 -3
26 -1 40 4 19 8 31 7 41 -1 11 -10 20 -8 43 9 38 29 61 28 89 -4 17 -19 28
-24 44 -19 59 18 65 17 88 -14 26 -35 44 -39 72 -14 18 17 20 17 41 -10 18
-23 27 -26 53 -21 30 6 33 3 57 -45 22 -43 32 -52 66 -61 22 -6 56 -10 75 -8
28 2 41 -4 61 -26 15 -15 32 -25 40 -22 8 3 21 9 29 12 11 4 19 -3 26 -25 7
-20 20 -33 35 -37 13 -3 24 -10 24 -15 0 -16 26 -10 45 11 25 28 40 25 55 -10
7 -16 16 -30 21 -30 4 0 20 16 35 35 32 42 58 45 76 8 17 -37 39 -39 74 -10
16 14 44 28 62 32 18 4 63 32 100 64 75 64 108 79 167 74 30 -3 50 3 80 21 22
14 61 36 86 50 25 13 51 32 58 40 18 22 30 20 59 -6 l24 -23 24 31 c23 29 27
31 67 24 70 -13 110 -6 124 21 7 14 23 35 37 48 20 19 28 21 45 11 18 -9 25
-7 44 13 45 48 97 62 97 26 0 -18 4 -20 23 -14 12 4 47 8 77 9 30 1 99 14 154
29 121 33 156 35 156 7 0 -12 -9 -38 -20 -59 -10 -21 -16 -41 -13 -45 12 -12
54 -6 91 13 28 14 59 19 127 19 61 0 102 5 127 16 48 20 87 20 110 0 16 -16
23 -16 80 -1 l63 16 22 -27 c16 -19 30 -26 49 -24 15 2 34 -4 45 -14 17 -15
23 -16 40 -5 23 13 42 5 97 -44 15 -13 56 -48 92 -76 36 -29 76 -63 89 -76 14
-13 34 -22 49 -20 14 1 27 -4 30 -12 2 -7 40 -49 84 -93 43 -44 85 -92 92
-107 8 -14 28 -38 45 -54 17 -15 31 -37 31 -48 0 -11 16 -39 35 -62 27 -32 34
-48 33 -77 -1 -38 27 -97 64 -133 11 -11 17 -30 16 -47 -1 -15 3 -34 9 -42 6
-7 20 -38 31 -68 11 -30 32 -89 47 -130 15 -41 35 -106 45 -145 11 -38 33
-110 49 -158 17 -48 31 -96 31 -105 0 -10 7 -28 16 -40 8 -12 28 -57 43 -99
16 -43 44 -118 63 -168 19 -49 43 -133 52 -185 21 -112 42 -408 51 -715 9
-297 37 -488 100 -700 23 -76 28 -114 32 -245 5 -165 -10 -284 -58 -465 -12
-44 -28 -105 -36 -135 -8 -30 -19 -75 -24 -99 -5 -25 -16 -55 -24 -67 -8 -13
-15 -33 -15 -44 0 -12 -7 -34 -15 -49 -8 -16 -18 -48 -21 -72 -9 -54 -24 -83
-67 -128 -19 -21 -39 -53 -45 -72 -11 -39 -57 -93 -90 -103 -12 -4 -25 -18
-28 -31 -3 -13 -15 -32 -26 -42 -11 -9 -26 -32 -33 -50 -8 -18 -18 -33 -23
-33 -15 0 -77 -65 -110 -116 -21 -31 -44 -52 -64 -59 -22 -7 -34 -19 -39 -38
-4 -16 -30 -50 -58 -76 -28 -27 -60 -70 -72 -97 -24 -53 -44 -73 -71 -74 -11
0 -18 -8 -18 -20 0 -46 -23 -118 -45 -142 -13 -14 -25 -32 -26 -39 -5 -23 11
-70 31 -91 l19 -20 30 22 c17 12 31 28 31 36 0 10 10 13 40 9 23 -3 49 -1 59
4 10 6 33 13 51 16 43 8 50 12 50 35 0 19 32 36 49 26 14 -9 50 28 67 70 9 22
26 50 39 64 12 14 26 35 29 47 8 25 36 39 46 22 5 -7 13 -3 24 12 18 26 21 60
6 75 -11 11 -2 54 11 54 5 0 9 -6 9 -12 1 -20 50 81 50 102 0 10 4 21 9 24 5
4 14 28 20 54 13 61 39 122 51 122 6 0 10 18 10 39 0 22 4 42 8 45 5 3 73 8
153 11 79 3 162 9 184 13 35 7 40 11 37 32 -5 37 -15 42 -63 31 -62 -15 -111
-13 -151 4 -20 8 -48 16 -63 19 -39 7 -68 36 -60 61 4 11 15 49 25 85 10 36
36 97 57 137 21 39 53 99 71 134 27 49 32 69 27 95 -9 49 21 107 94 181 33 35
70 80 81 100 46 83 68 114 106 150 43 40 106 157 125 233 15 61 31 174 33 235
1 28 6 59 12 70 6 11 14 33 18 49 4 17 14 35 22 41 9 6 18 31 21 55 7 57 19
73 44 60 19 -11 39 -67 39 -112 0 -18 5 -28 15 -28 16 0 21 -16 30 -105 3 -33
12 -66 19 -74 17 -16 18 -13 41 104 11 52 26 93 45 120 45 61 99 264 110 408
9 115 9 120 -15 165 -38 73 -121 152 -159 152 -15 0 -65 -87 -81 -140 -10 -37
-64 -179 -86 -227 -10 -23 -19 -48 -19 -55 0 -7 -7 -22 -15 -32 -8 -11 -15
-34 -15 -52 0 -36 -12 -50 -28 -31 -16 20 4 320 26 398 37 125 77 182 150 215
72 32 91 57 92 119 0 28 7 61 14 74 9 16 12 45 8 87 -6 80 4 96 103 170 41 30
81 65 89 77 21 32 56 136 50 150 -8 21 -36 199 -41 258 -4 43 4 90 32 199 l36
143 -18 76 c-12 52 -18 118 -18 206 l0 130 38 80 c61 127 81 194 66 222 -10
19 -10 26 4 41 10 10 17 28 17 39 0 11 7 26 15 33 8 7 15 28 15 48 0 27 11 48
46 91 32 39 44 62 41 78 -2 13 2 31 9 40 7 10 14 33 14 51 0 18 5 43 11 54 7
12 11 67 10 135 -1 70 2 120 9 128 13 15 16 145 5 195 -4 19 -16 46 -26 59
-11 13 -19 29 -19 36 0 19 -199 205 -220 205 -10 0 -23 7 -30 15 -7 8 -22 15
-34 15 -11 0 -35 14 -53 30 -23 21 -42 30 -66 30 -19 0 -40 7 -47 15 -7 8 -22
15 -35 15 -26 0 -75 42 -75 65 0 8 -5 15 -10 15 -6 0 -13 8 -17 18 -3 9 -23
40 -44 67 -20 28 -41 62 -44 78 -4 15 -11 30 -16 33 -5 3 -9 18 -9 33 0 16 -9
40 -20 54 -11 14 -20 33 -20 42 0 9 -8 29 -18 43 -20 29 -42 105 -42 146 0 17
-10 31 -36 47 -37 22 -73 85 -74 125 0 12 -11 29 -24 38 -39 25 -156 142 -156
155 0 6 -20 31 -44 55 -51 49 -69 99 -55 151 6 19 13 35 16 35 3 0 31 -17 62
-37z m-7653 -418 c-9 -13 -22 -22 -29 -19 -27 10 -109 -81 -89 -100 3 -4 1
-11 -7 -15 -10 -7 -10 -16 0 -50 12 -39 11 -43 -14 -69 -15 -16 -27 -37 -27
-49 0 -11 -7 -26 -15 -33 -8 -7 -15 -23 -15 -36 0 -13 -4 -24 -10 -24 -5 0
-10 -10 -10 -23 0 -13 -7 -32 -15 -43 -8 -10 -15 -27 -15 -37 0 -10 -7 -29
-16 -42 -11 -17 -15 -41 -13 -77 3 -38 -1 -60 -13 -77 -10 -15 -15 -34 -12
-51 4 -17 0 -31 -10 -39 -9 -8 -16 -24 -16 -36 0 -12 -7 -28 -15 -35 -8 -7
-15 -21 -15 -32 0 -10 -7 -30 -16 -43 -9 -14 -13 -32 -9 -45 4 -14 -3 -33 -24
-62 -24 -33 -31 -52 -31 -90 0 -44 -4 -52 -62 -114 -101 -109 -126 -132 -147
-139 -11 -3 -40 -28 -65 -56 -33 -36 -51 -49 -72 -49 -15 0 -35 -7 -44 -15 -9
-8 -32 -18 -51 -22 -27 -6 -51 -26 -98 -78 -34 -38 -65 -81 -68 -95 -3 -14
-12 -35 -20 -46 -11 -18 -12 -47 -3 -165 5 -79 10 -153 10 -165 0 -12 9 -31
20 -44 11 -13 20 -35 20 -49 0 -19 15 -42 50 -76 44 -44 50 -54 50 -91 0 -24
6 -49 14 -56 7 -7 48 -44 90 -82 54 -48 76 -75 75 -90 -1 -11 -1 -51 -1 -88 2
-53 6 -72 22 -88 11 -11 20 -27 20 -36 0 -9 23 -36 50 -61 28 -25 50 -52 50
-61 0 -9 8 -25 19 -36 26 -29 39 -233 16 -242 -8 -4 -15 -18 -15 -32 0 -14 -7
-34 -16 -43 -15 -17 -15 -35 -5 -186 9 -141 14 -172 31 -195 11 -15 20 -34 20
-42 0 -24 110 -106 151 -112 21 -4 51 -20 72 -39 l36 -33 12 -128 11 -129 42
-37 c22 -21 50 -38 60 -38 30 0 66 -40 66 -71 0 -32 44 -79 74 -79 34 0 66
-39 66 -80 0 -60 -29 -79 -139 -89 -82 -7 -96 -12 -122 -37 -47 -44 -99 -119
-99 -142 0 -11 -7 -25 -15 -32 -8 -7 -15 -25 -15 -40 0 -16 -8 -42 -17 -58
-16 -27 -16 -45 -6 -207 9 -133 16 -182 28 -195 8 -9 15 -31 15 -48 0 -60 23
-187 36 -203 8 -8 14 -23 14 -32 0 -8 6 -22 13 -29 8 -7 16 -35 19 -61 3 -26
12 -56 20 -65 9 -9 18 -37 22 -61 4 -24 13 -53 21 -64 8 -12 15 -31 15 -42 0
-11 9 -33 20 -50 11 -16 20 -44 20 -61 0 -17 7 -37 15 -44 8 -7 15 -18 15 -24
0 -6 9 -28 20 -49 11 -20 20 -42 20 -48 0 -6 9 -22 20 -36 11 -14 20 -37 20
-50 0 -14 9 -36 20 -50 11 -14 20 -32 20 -40 0 -8 14 -34 30 -58 17 -24 30
-50 30 -57 0 -7 9 -21 20 -31 11 -9 20 -28 20 -41 0 -14 5 -28 11 -32 6 -3 18
-21 25 -38 8 -17 26 -49 39 -71 13 -22 28 -49 34 -60 5 -11 24 -35 40 -54 17
-18 31 -37 31 -41 0 -3 30 -37 68 -75 69 -71 173 -145 202 -145 9 0 21 -5 27
-11 8 -8 54 -10 146 -7 118 4 138 7 165 26 17 13 34 32 38 44 6 21 6 21 25 -3
10 -13 19 -30 19 -37 0 -8 9 -25 20 -39 11 -14 20 -33 20 -42 0 -9 6 -25 14
-36 7 -11 26 -49 40 -85 33 -80 53 -124 77 -172 11 -20 19 -45 19 -56 0 -10 7
-27 15 -38 8 -10 15 -30 15 -42 0 -13 9 -35 20 -49 11 -14 20 -35 20 -47 0
-11 9 -34 19 -50 11 -16 17 -34 15 -41 -3 -6 4 -20 16 -30 11 -10 20 -24 20
-30 0 -7 7 -18 15 -25 8 -7 15 -25 15 -41 0 -19 12 -42 34 -66 18 -21 37 -52
40 -69 4 -18 16 -40 27 -50 10 -9 19 -21 19 -27 0 -5 14 -26 30 -47 17 -21 30
-42 30 -47 0 -6 9 -18 20 -28 11 -10 20 -24 20 -31 0 -7 18 -30 41 -51 23 -21
48 -51 56 -68 9 -16 26 -37 37 -46 12 -10 35 -37 51 -61 48 -70 335 -361 411
-416 41 -30 89 -95 81 -109 -2 -5 -1 -35 3 -68 l7 -60 -55 -57 c-30 -32 -63
-58 -73 -58 -10 0 -23 -9 -29 -20 -6 -11 -16 -20 -24 -20 -7 0 -42 -29 -78
-65 -37 -36 -71 -65 -76 -65 -5 0 -40 -31 -78 -70 -37 -39 -72 -70 -77 -70
-15 0 -105 -76 -195 -164 -45 -45 -99 -97 -120 -116 -21 -19 -65 -64 -97 -100
-32 -36 -104 -114 -159 -173 -56 -60 -102 -112 -104 -118 -2 -5 -9 -9 -16 -9
-6 0 -41 -29 -76 -65 -35 -36 -69 -65 -74 -65 -29 0 -484 299 -681 449 -444
336 -890 786 -1231 1241 -656 875 -1069 1891 -1208 2973 -42 326 -51 457 -51
812 0 355 8 477 51 820 175 1376 804 2656 1794 3645 223 223 401 381 408 361
2 -6 -3 -23 -12 -36z m6307 -496 c45 -12 44 -30 -2 -43 -27 -8 -32 -14 -28
-32 2 -13 1 -27 -2 -33 -8 -13 -98 -36 -197 -51 -44 -6 -104 -17 -134 -23 -56
-12 -104 -12 -197 -1 -60 7 -69 25 -25 48 16 8 34 22 41 30 8 9 24 16 36 16
12 0 33 9 47 19 13 11 41 22 61 26 20 4 41 13 48 21 6 8 19 14 29 14 10 0 22
6 28 13 13 15 236 12 295 -4z m-505 -11 c-3 -7 -22 -14 -44 -16 -39 -2 -39 -2
-14 13 31 18 63 19 58 3z m-4248 -614 c0 -2 -12 -4 -26 -4 -14 0 -23 4 -20 9
6 8 46 4 46 -5z m-2190 -428 c0 -13 -7 -29 -15 -36 -8 -7 -15 -20 -15 -30 0
-10 -7 -23 -15 -30 -12 -10 -15 -9 -15 8 0 11 7 25 15 32 8 7 15 25 15 40 0
14 3 30 7 33 13 14 23 6 23 -17z m2377 -1252 c-3 -3 -12 -4 -19 -1 -8 3 -5 6
6 6 11 1 17 -2 13 -5z m6353 -1929 c0 -8 -4 -15 -10 -15 -5 0 -10 7 -10 15 0
8 5 15 10 15 6 0 10 -7 10 -15z m-5910 -655 c0 -5 -4 -10 -9 -10 -6 0 -13 5
-16 10 -3 6 1 10 9 10 9 0 16 -4 16 -10z m365 -15 c38 -8 92 -15 120 -15 27
-1 64 -7 80 -15 28 -14 26 -14 -40 -9 -38 3 -125 7 -191 9 -127 2 -174 9 -174
25 0 9 36 16 100 18 19 1 66 -5 105 -13z m-1903 -341 c-8 -15 -11 -12 -17 14
-3 17 -3 37 1 44 12 19 27 -38 16 -58z m62 -273 c9 -29 16 -70 16 -91 0 -21 6
-55 14 -76 19 -56 30 -128 18 -120 -5 3 -12 24 -16 48 -4 23 -13 56 -21 72 -7
17 -16 56 -20 87 -3 31 -13 77 -20 104 -8 26 -12 52 -8 58 7 12 13 0 37 -82z
m5990 -1348 c8 -19 -8 -38 -23 -29 -16 10 -13 46 3 46 8 0 17 -8 20 -17z
m-228 -1218 c-10 -89 11 -242 48 -351 39 -111 95 -248 125 -302 12 -21 39 -71
61 -112 76 -140 74 -136 107 -202 23 -45 36 -203 29 -365 -7 -165 -21 -264
-62 -418 -14 -55 -30 -119 -36 -143 -9 -40 -14 -45 -86 -81 -43 -21 -142 -64
-222 -96 -385 -153 -705 -249 -1085 -325 -336 -68 -805 -128 -805 -103 0 6 27
42 59 81 33 39 72 92 86 117 15 25 30 45 34 45 4 0 23 21 41 47 19 25 54 68
79 93 25 26 80 86 121 133 41 48 113 126 159 174 46 49 100 108 119 133 37 45
131 153 156 179 8 7 29 28 47 45 19 18 45 50 59 70 27 41 165 204 255 301 30
33 65 74 78 92 42 60 92 125 128 166 19 23 46 58 59 77 13 19 35 49 49 67 220
271 308 418 335 563 17 87 35 160 42 172 3 4 10 5 16 2 6 -4 8 -27 4 -59z
m629 -426 c11 -17 -1 -21 -15 -4 -8 9 -8 15 -2 15 6 0 14 -5 17 -11z m199
-175 c4 -9 4 -19 2 -21 -8 -8 -26 8 -26 23 0 19 16 18 24 -2z"/>
<path d="M16424 20499 c-3 -6 -1 -16 4 -21 13 -13 45 8 36 23 -7 12 -31 11
-40 -2z"/>
<path d="M12525 20400 c-3 -6 1 -13 10 -16 19 -8 30 0 20 15 -8 14 -22 14 -30
1z"/>
<path d="M17290 16029 c-14 -7 -56 -18 -95 -24 -112 -21 -199 -49 -237 -78
-23 -18 -62 -33 -109 -43 -40 -8 -77 -17 -82 -21 -4 -3 -50 -16 -100 -29 -51
-13 -123 -33 -162 -45 -38 -11 -106 -31 -150 -44 -44 -12 -96 -29 -115 -37
-19 -9 -71 -23 -115 -33 -44 -10 -108 -28 -142 -41 -34 -13 -67 -24 -75 -24
-7 0 -30 -9 -51 -20 -20 -11 -47 -20 -60 -20 -13 0 -32 -9 -42 -20 -10 -11
-28 -20 -40 -20 -13 0 -28 -7 -35 -15 -7 -8 -22 -15 -35 -15 -28 0 -53 -28
-61 -69 -4 -21 -15 -37 -30 -43 -22 -10 -24 -17 -24 -79 0 -38 6 -88 14 -111
8 -24 17 -61 21 -83 24 -156 41 -228 72 -292 28 -59 42 -76 78 -97 27 -16 59
-26 84 -26 22 0 52 -5 66 -12 19 -9 28 -9 37 0 19 19 38 14 48 -13 5 -14 16
-25 25 -25 18 0 20 -47 5 -100 -5 -19 -6 -38 -1 -43 10 -10 94 -21 141 -17 50
4 211 4 377 0 l142 -3 34 37 c34 35 36 36 113 36 94 1 210 35 228 67 14 27 76
78 76 64 0 -36 -80 -120 -125 -132 -16 -4 -58 -18 -92 -29 -57 -20 -62 -23
-52 -42 6 -11 8 -30 5 -42 -6 -26 3 -66 15 -66 5 0 9 18 9 40 0 35 4 42 28 52
33 14 92 15 151 2 38 -8 49 -16 70 -53 40 -67 52 -54 40 44 -4 27 -1 30 23 30
15 0 33 8 41 18 12 18 15 18 64 2 28 -9 59 -25 69 -36 42 -46 62 5 22 56 l-22
28 34 28 c19 16 50 34 69 40 20 7 64 24 99 40 53 24 63 32 60 51 -2 18 9 29
62 59 70 41 174 145 196 196 15 35 19 83 7 83 -5 0 -24 -10 -43 -22 -35 -21
-130 -41 -130 -27 0 4 10 9 22 11 12 2 28 13 34 26 6 12 21 33 33 46 17 18 19
26 10 32 -8 4 -21 -3 -35 -19 -37 -43 -42 -32 -19 41 24 73 23 84 -10 122 -12
14 -29 38 -39 53 -15 25 -22 28 -49 23 -18 -3 -47 -2 -64 3 -28 8 -37 6 -69
-20 -49 -39 -64 -38 -64 6 0 29 -5 37 -26 45 -14 6 -38 10 -53 10 -15 0 -31 4
-37 10 -5 5 -30 9 -54 9 -162 -2 -227 -5 -238 -12 -7 -5 -21 -5 -32 -2 -11 3
-25 3 -32 -1 -17 -11 -181 -5 -192 6 -5 6 -4 15 3 23 6 8 8 22 5 31 -4 9 0 24
8 34 8 9 20 31 27 48 7 17 23 37 36 44 12 7 28 23 35 35 7 13 27 29 44 37 17
7 73 36 124 65 260 147 440 171 686 91 32 -10 65 -17 72 -14 26 10 14 36 -26
61 -22 14 -40 29 -40 34 0 5 -21 17 -48 25 -26 9 -53 25 -60 36 -7 11 -19 20
-28 20 -9 0 -44 14 -78 31 -50 26 -76 32 -141 35 -47 2 -90 -1 -105 -7z m140
-40 c0 -14 -27 -22 -47 -14 -17 6 -17 7 0 20 19 14 47 10 47 -6z m0 -728 c0
-12 -20 -25 -27 -18 -7 7 6 27 18 27 5 0 9 -4 9 -9z m-385 -12 c10 -16 -4 -59
-19 -59 -17 0 -28 27 -21 51 7 21 30 25 40 8z m114 2 c21 -14 4 -53 -22 -49
-25 3 -35 37 -15 49 16 11 20 11 37 0z m-199 -16 c6 -8 9 -19 5 -25 -10 -16
-65 -12 -72 6 -11 30 44 46 67 19z m291 -18 c-8 -8 -11 -7 -11 4 0 9 3 19 7
23 4 4 9 2 11 -4 3 -7 -1 -17 -7 -23z m-911 -553 c0 -16 -16 -19 -25 -4 -8 13
4 32 16 25 5 -4 9 -13 9 -21z"/>
<path d="M16700 14424 c0 -9 5 -14 12 -12 18 6 21 28 4 28 -9 0 -16 -7 -16
-16z"/>
<path d="M18160 13346 c0 -9 5 -16 10 -16 6 0 10 4 10 9 0 6 -4 13 -10 16 -5
3 -10 -1 -10 -9z"/>
<path d="M18026 12598 c-9 -29 -20 -60 -23 -68 -3 -8 8 2 25 22 21 24 32 46
32 67 0 46 -14 38 -34 -21z"/>
<path d="M17750 11934 c0 -8 5 -12 10 -9 6 3 10 10 10 16 0 5 -4 9 -10 9 -5 0
-10 -7 -10 -16z"/>
<path d="M17662 11823 c-12 -4 -47 -63 -38 -63 2 0 16 16 30 35 15 19 26 35
24 34 -2 0 -9 -3 -16 -6z"/>
<path d="M16951 19290 c-16 -9 -6 -30 15 -30 15 0 20 25 6 34 -4 2 -14 1 -21
-4z"/>
<path d="M7698 8897 c-80 -73 -147 -135 -147 -138 -1 -9 279 -318 324 -358 50
-44 93 -61 152 -61 122 1 216 101 199 213 -4 23 -19 64 -34 90 -30 53 -321
386 -337 386 -5 0 -76 -60 -157 -132z"/>
<path d="M6990 8258 c-85 -77 -155 -144 -155 -149 0 -16 328 -370 368 -397
121 -83 259 -64 315 43 42 80 33 169 -26 258 -36 55 -330 388 -341 386 -3 0
-76 -63 -161 -141z"/>
<path d="M22183 8476 c100 -161 189 -304 197 -316 15 -22 18 -20 164 150 81
94 146 173 144 174 -2 1 -75 32 -163 69 -88 36 -241 100 -340 141 -98 42 -180
76 -182 76 -1 0 80 -132 180 -294z"/>
<path d="M10050 7021 c-76 -25 -141 -70 -231 -160 -146 -147 -288 -380 -361
-592 -28 -83 -32 -107 -33 -204 0 -101 2 -115 28 -167 50 -103 170 -187 297
-209 109 -20 232 32 332 139 159 170 357 507 409 696 31 115 25 240 -16 315
-35 64 -98 121 -174 158 -46 23 -71 28 -141 30 -47 1 -96 -1 -110 -6z"/>
<path d="M12686 5823 c-21 -103 -39 -197 -39 -207 -2 -17 21 -24 203 -63 255
-54 337 -58 402 -20 112 65 142 208 63 296 -52 57 -128 85 -348 130 -109 23
-208 43 -220 46 -22 6 -24 0 -61 -182z"/>
<path d="M12520 5023 c-7 -32 -27 -132 -46 -222 -18 -91 -33 -165 -31 -167 13
-11 477 -97 527 -97 103 0 185 47 221 128 56 123 -27 263 -183 310 -28 8 -139
33 -247 55 -108 22 -204 43 -213 46 -13 4 -19 -6 -28 -53z"/>
<path d="M15612 5215 c-46 -202 -82 -368 -80 -370 4 -2 452 37 456 40 2 2
-174 422 -275 654 l-19 44 -82 -368z"/>
</g>
</svg>
